<svg width="453" height="439" viewBox="0 0 453 439" fill="none" xmlns="http://www.w3.org/2000/svg">
<path d="M116.399 1.59166C116.704 0.643037 117.587 0 118.584 0H213.759C215.317 0 216.422 1.51779 215.945 3.00017L185.197 98.4083C184.891 99.357 184.008 100 183.011 100H87.8357C86.2783 100 85.1727 98.4822 85.6505 96.9998L116.399 1.59166Z" fill="black"/>
<path d="M116.399 151.592C116.704 150.643 117.587 150 118.584 150H213.759C215.317 150 216.422 151.518 215.945 153L185.197 248.408C184.891 249.357 184.008 250 183.011 250H87.8357C86.2783 250 85.1727 248.482 85.6505 247L116.399 151.592Z" fill="black"/>
<path d="M267.782 1.55052C268.101 0.622931 268.973 0 269.954 0H365.099C366.675 0 367.782 1.55096 367.271 3.04131L317.359 148.449C317.04 149.377 316.168 150 315.187 150H220.042C218.466 150 217.359 148.449 217.87 146.959L267.782 1.55052Z" fill="black"/>
<path d="M222.029 150.041C218.321 150.041 216.479 151.911 215.864 154.207L214.631 152.974L218.968 148.17C221.533 148.794 225.736 150.041 222.029 150.041Z" fill="black"/>
<path d="M212.393 150.001C216.101 150.001 217.943 148.131 218.558 145.835L219.791 147.068L215.454 151.872C212.889 151.248 208.686 150.001 212.393 150.001Z" fill="black"/>
<rect x="217.732" y="148.215" width="1.14243" height="4.02858" transform="rotate(45 217.732 148.215)" fill="black"/>
<path d="M12.1701 417V329.158H50.3673C69.1646 329.158 77.8403 340.124 77.8403 356.873C77.8403 374.585 68.3212 384.948 50.3673 384.948H23.1352V417H12.1701ZM23.1352 375.308H49.8853C60.4889 375.308 66.2727 369.645 66.2727 361.21V352.414C66.2727 343.979 60.2479 339.28 51.2108 339.28H23.1352V375.308ZM82.6705 398.926C82.6705 386.515 91.4667 379.526 105.565 379.526H124.483V374.706C124.483 364.705 118.578 361.21 110.264 361.21C100.745 361.21 95.9251 365.789 95.5636 372.899H85.3214C86.0444 360.367 95.6841 352.896 110.867 352.896C133.158 352.896 134.845 369.525 134.845 374.947V409.288H144.123V417H133.399C127.254 417 125.447 414.229 125.206 409.891L125.085 406.637H124.362C121.591 413.626 113.276 418.205 102.914 418.205C90.1413 418.205 82.6705 410.493 82.6705 398.926ZM93.3947 396.275V400.131C93.3947 406.517 98.2145 409.77 105.324 409.77C117.253 409.77 124.483 401.818 124.483 390.491V387.117H106.529C97.9735 387.117 93.3947 390.973 93.3947 396.275ZM164.39 354.101H186.2V362.777H165.354V417H154.871V363.379C154.871 359.041 156.197 354.101 164.39 354.101ZM187.403 398.926C187.403 386.515 196.199 379.526 210.297 379.526H229.215V374.706C229.215 364.705 223.311 361.21 214.997 361.21C205.477 361.21 200.658 365.789 200.296 372.899H190.054C190.777 360.367 200.417 352.896 215.599 352.896C237.891 352.896 239.578 369.525 239.578 374.947V409.288H248.856V417H238.132C231.987 417 230.179 414.229 229.938 409.891L229.818 406.637H229.095C226.323 413.626 218.009 418.205 207.646 418.205C194.874 418.205 187.403 410.493 187.403 398.926ZM198.127 396.275V400.131C198.127 406.517 202.947 409.77 210.056 409.77C221.985 409.77 229.215 401.818 229.215 390.491V387.117H211.261C202.706 387.117 198.127 390.973 198.127 396.275ZM291.535 404.709C303.705 404.709 310.694 410.855 310.694 420.494C310.694 432.905 298.885 438.81 280.449 438.81C261.773 438.81 253.458 432.785 253.458 423.748C253.458 417.12 257.314 412.903 263.098 411.096V410.252C259.483 409.047 256.953 405.553 256.953 401.697C256.953 396.877 260.327 392.78 265.267 391.334V390.611C259.363 386.997 256.109 380.851 256.109 373.742C256.109 361.21 265.869 352.896 279.606 352.896C283.823 352.896 287.8 353.619 290.933 354.945V352.896C290.933 347.594 293.945 345.305 299.608 345.305H309.85V353.86H297.921V359.403C301.416 362.897 303.705 368.079 303.705 374.103C303.705 386.394 294.186 394.588 280.69 394.588C277.317 394.588 274.545 394.226 272.015 393.503C268.4 394.226 266.472 396.636 266.472 399.287C266.472 404.589 271.894 404.709 274.907 404.709H291.535ZM266.472 371.694V376.031C266.472 382.659 271.774 387.117 279.967 387.117C288.041 387.117 293.463 382.659 293.463 376.031V371.694C293.463 365.066 288.041 360.487 279.967 360.487C271.894 360.487 266.472 364.946 266.472 371.694ZM281.052 430.978C294.909 430.978 300.331 427.001 300.331 420.976C300.331 413.506 292.379 413.506 290.692 413.506H273.581C266.472 413.506 263.219 416.759 263.219 421.699C263.219 428.206 269.002 430.978 281.052 430.978ZM314.849 385.551C314.849 364.946 327.14 352.896 345.094 352.896C362.807 352.896 375.218 364.705 375.218 385.551C375.218 405.191 364.252 418.205 345.094 418.205C326.176 418.205 314.849 405.432 314.849 385.551ZM325.573 390.732C325.573 403.022 334.49 409.529 345.094 409.529C355.818 409.529 364.614 402.902 364.614 390.732V380.972C364.614 369.284 356.3 361.692 345.094 361.692C333.767 361.692 325.573 369.404 325.573 380.972V390.732ZM388.694 417V354.101H397.852L399.177 365.789H400.021C403.877 357.716 411.83 352.896 421.228 352.896C434.965 352.896 443.038 362.777 443.038 378.321V417H432.555V379.405C432.555 367.597 427.253 362.174 417.734 362.174C406.648 362.174 399.177 370.971 399.177 384.105V417H388.694Z" fill="black"/>
</svg>
