<svg width="500" height="500" viewBox="0 0 500 500" fill="none" xmlns="http://www.w3.org/2000/svg">
<rect width="500" height="500" fill="url(#paint0_radial_87_62)"/>
<path d="M313.532 229.047C316.74 207.602 300.413 196.074 278.087 188.384L285.33 159.334L267.646 154.928L260.596 183.213C255.947 182.053 251.173 180.961 246.428 179.878L253.529 151.406L235.857 147L228.61 176.04C224.763 175.164 220.985 174.299 217.319 173.386L217.34 173.295L192.954 167.206L188.25 186.093C188.25 186.093 201.369 189.1 201.093 189.285C208.254 191.072 209.549 195.812 209.334 199.57L201.083 232.664C201.577 232.789 202.216 232.97 202.922 233.254C202.332 233.107 201.704 232.948 201.053 232.792L189.489 279.152C188.614 281.328 186.392 284.593 181.386 283.353C181.563 283.61 168.533 280.145 168.533 280.145L159.754 300.387L182.766 306.124C187.047 307.197 191.242 308.321 195.374 309.377L188.056 338.76L205.719 343.166L212.966 314.095C217.791 315.405 222.474 316.613 227.058 317.752L219.836 346.686L237.52 351.092L244.837 321.765C274.991 327.471 297.664 325.171 307.207 297.896C314.897 275.938 306.825 263.272 290.961 255.012C302.515 252.347 311.218 244.748 313.539 229.049L313.533 229.045L313.532 229.047ZM273.13 285.702C267.665 307.66 230.693 295.79 218.706 292.814L228.417 253.886C240.403 256.879 278.841 262.801 273.131 285.702H273.13ZM278.599 228.729C273.614 248.703 242.841 238.555 232.859 236.067L241.663 200.762C251.645 203.251 283.792 207.895 278.6 228.729H278.599Z" fill="white"/>
<path d="M312.095 395.975C312.174 395.76 312.382 395.62 312.611 395.629L334.449 396.472C334.807 396.485 335.047 396.843 334.924 397.179L327.024 418.799C326.946 419.014 326.737 419.154 326.509 419.145L304.67 418.302C304.313 418.289 304.072 417.931 304.195 417.595L312.095 395.975Z" fill="white"/>
<path d="M348.16 362.887C348.241 362.677 348.447 362.542 348.672 362.55L370.504 363.393C370.865 363.407 371.105 363.773 370.975 364.11L358.235 397.033C358.154 397.243 357.948 397.378 357.723 397.37L335.891 396.527C335.529 396.513 335.289 396.148 335.42 395.81L348.16 362.887Z" fill="white"/>
<path d="M336.271 396.551C335.42 396.519 334.981 396.932 334.819 397.453L334.547 397.159L335.585 396.095C336.168 396.261 337.122 396.584 336.271 396.551Z" fill="white"/>
<path d="M334.069 396.456C334.92 396.489 335.359 396.076 335.521 395.555L335.793 395.849L334.755 396.913C334.172 396.747 333.218 396.424 334.069 396.456Z" fill="white"/>
<rect x="335.309" y="396.098" width="0.261978" height="0.923818" transform="rotate(47.2097 335.309 396.098)" fill="white"/>
<path d="M333.568 339.452C333.646 339.237 333.855 339.097 334.083 339.106L355.922 339.948C356.279 339.962 356.52 340.32 356.397 340.656L348.497 362.276C348.418 362.491 348.21 362.631 347.981 362.622L326.143 361.779C325.785 361.766 325.545 361.407 325.668 361.072L333.568 339.452Z" fill="white"/>
<path d="M311.554 338.473C311.632 338.258 311.84 338.119 312.069 338.128L333.908 338.97C334.265 338.984 334.506 339.342 334.383 339.678L304.223 417.92C304.144 418.135 303.936 418.275 303.707 418.266L281.869 417.423C281.511 417.409 281.271 417.051 281.394 416.715L311.554 338.473Z" fill="white"/>
<defs>
<radialGradient id="paint0_radial_87_62" cx="0" cy="0" r="1" gradientUnits="userSpaceOnUse" gradientTransform="rotate(45) scale(707.107)">
<stop stop-color="#99E0C6"/>
<stop offset="0.549686" stop-color="#2D607F"/>
<stop offset="1" stop-color="#0A1727"/>
</radialGradient>
</defs>
</svg>
