<svg width="500" height="500" viewBox="0 0 500 500" fill="none" xmlns="http://www.w3.org/2000/svg">
<rect width="500" height="500" fill="url(#paint0_radial_87_62)"/>
<path d="M326.946 230.478C330.154 209.032 313.827 197.505 291.501 189.815L298.744 160.765L281.06 156.359L274.01 184.643C269.361 183.484 264.587 182.391 259.842 181.308L266.943 152.837L249.271 148.431L242.024 177.471C238.177 176.595 234.399 175.729 230.733 174.817L230.754 174.726L206.368 168.636L201.664 187.523C201.664 187.523 214.783 190.531 214.507 190.716C221.668 192.503 222.963 197.243 222.748 201L214.497 234.095C214.991 234.22 215.63 234.401 216.336 234.685C215.746 234.538 215.118 234.378 214.467 234.222L202.903 280.583C202.028 282.758 199.806 286.023 194.8 284.783C194.977 285.04 181.947 281.576 181.947 281.576L173.168 301.818L196.18 307.554C200.461 308.628 204.656 309.751 208.788 310.807L201.47 340.19L219.133 344.597L226.38 315.526C231.205 316.836 235.888 318.044 240.472 319.183L233.25 348.117L250.934 352.523L258.251 323.195C288.405 328.902 311.078 326.601 320.621 299.327C328.312 277.368 320.239 264.702 304.375 256.443C315.929 253.778 324.632 246.178 326.953 230.48L326.947 230.476L326.946 230.478ZM286.544 287.132C281.079 309.091 244.107 297.221 232.12 294.244L241.831 255.317C253.817 258.309 292.256 264.231 286.545 287.132H286.544ZM292.013 230.159C287.028 250.133 256.255 239.986 246.273 237.497L255.077 202.193C265.059 204.681 297.206 209.325 292.015 230.159H292.013Z" fill="white"/>
<path d="M312.095 395.975C312.174 395.76 312.382 395.62 312.611 395.629L334.449 396.472C334.807 396.485 335.047 396.843 334.924 397.179L327.024 418.799C326.946 419.014 326.737 419.154 326.509 419.145L304.67 418.302C304.313 418.289 304.072 417.931 304.195 417.595L312.095 395.975Z" fill="white"/>
<path d="M348.16 362.887C348.241 362.677 348.447 362.542 348.672 362.55L370.504 363.393C370.865 363.407 371.105 363.773 370.975 364.11L358.235 397.033C358.154 397.243 357.948 397.378 357.723 397.37L335.891 396.527C335.529 396.513 335.289 396.148 335.42 395.81L348.16 362.887Z" fill="white"/>
<path d="M336.271 396.551C335.42 396.519 334.981 396.932 334.819 397.453L334.547 397.159L335.585 396.095C336.168 396.261 337.122 396.584 336.271 396.551Z" fill="white"/>
<path d="M334.069 396.456C334.92 396.489 335.359 396.076 335.521 395.555L335.793 395.849L334.755 396.913C334.172 396.747 333.218 396.424 334.069 396.456Z" fill="white"/>
<rect x="335.309" y="396.098" width="0.261978" height="0.923818" transform="rotate(47.2097 335.309 396.098)" fill="white"/>
<path d="M333.568 339.452C333.646 339.237 333.855 339.097 334.083 339.106L355.922 339.948C356.279 339.962 356.52 340.32 356.397 340.656L348.497 362.276C348.418 362.491 348.21 362.631 347.981 362.622L326.143 361.779C325.785 361.766 325.545 361.407 325.668 361.072L333.568 339.452Z" fill="white"/>
<path d="M311.554 338.473C311.632 338.258 311.84 338.119 312.069 338.128L333.908 338.97C334.265 338.984 334.506 339.342 334.383 339.678L304.223 417.92C304.144 418.135 303.936 418.275 303.707 418.266L281.869 417.423C281.511 417.409 281.271 417.051 281.394 416.715L311.554 338.473Z" fill="white"/>
<defs>
<radialGradient id="paint0_radial_87_62" cx="0" cy="0" r="1" gradientUnits="userSpaceOnUse" gradientTransform="rotate(45) scale(707.107)">
<stop stop-color="#99E0C6"/>
<stop offset="0.549686" stop-color="#2D607F"/>
<stop offset="1" stop-color="#0A1727"/>
</radialGradient>
</defs>
</svg>
