<svg width="500" height="500" viewBox="0 0 500 500" fill="none" xmlns="http://www.w3.org/2000/svg">
<rect width="500" height="500" fill="url(#paint0_radial_87_48)"/>
<path d="M224.533 326.631C224.761 325.924 225.419 325.444 226.162 325.444H297.089C298.25 325.444 299.074 326.576 298.718 327.68L275.804 398.781C275.576 399.488 274.918 399.967 274.175 399.967H203.247C202.087 399.967 201.263 398.836 201.619 397.732L224.533 326.631Z" fill="white"/>
<path d="M337.349 214.816C337.586 214.124 338.236 213.66 338.967 213.66H409.872C411.046 213.66 411.872 214.816 411.49 215.927L374.295 324.289C374.057 324.98 373.407 325.444 372.676 325.444H301.771C300.597 325.444 299.772 324.289 300.153 323.178L337.349 214.816Z" fill="white"/>
<path d="M303.021 325.476C300.258 325.476 298.885 326.87 298.427 328.581L297.508 327.662L300.74 324.082C302.651 324.547 305.784 325.476 303.021 325.476Z" fill="white"/>
<path d="M295.842 325.447C298.605 325.447 299.978 324.053 300.437 322.342L301.355 323.26L298.124 326.841C296.212 326.376 293.079 325.447 295.842 325.447Z" fill="white"/>
<rect x="299.82" y="324.114" width="0.851375" height="3.00222" transform="rotate(45 299.82 324.114)" fill="white"/>
<path d="M275.474 285.62C275.247 286.327 274.589 286.807 273.846 286.807H202.918C201.758 286.807 200.934 285.676 201.29 284.571L224.204 213.47C224.432 212.763 225.09 212.284 225.833 212.284H296.76C297.921 212.284 298.745 213.415 298.389 214.52L275.474 285.62Z" fill="white"/>
<path d="M275.474 173.836C275.247 174.543 274.589 175.022 273.846 175.022H202.918C201.758 175.022 200.934 173.891 201.29 172.787L224.204 101.686C224.432 100.979 225.09 100.499 225.833 100.499H296.76C297.921 100.499 298.745 101.631 298.389 102.735L275.474 173.836Z" fill="white"/>
<path d="M162.659 285.651C162.422 286.342 161.771 286.807 161.041 286.807H90.1357C88.9614 286.807 88.1361 285.651 88.5174 284.54L125.713 176.178C125.95 175.487 126.601 175.022 127.331 175.022H198.236C199.411 175.022 200.236 176.178 199.855 177.289L162.659 285.651Z" fill="white"/>
<path d="M196.983 174.992C199.746 174.992 201.119 173.597 201.577 171.886L202.496 172.805L199.264 176.386C197.353 175.921 194.22 174.992 196.983 174.992Z" fill="white"/>
<path d="M204.162 175.022C201.399 175.022 200.026 176.416 199.567 178.127L198.648 177.208L201.88 173.628C203.792 174.093 206.925 175.022 204.162 175.022Z" fill="white"/>
<rect x="200.184" y="176.354" width="0.851375" height="3.00222" transform="rotate(-135 200.184 176.354)" fill="white"/>
<defs>
<radialGradient id="paint0_radial_87_48" cx="0" cy="0" r="1" gradientUnits="userSpaceOnUse" gradientTransform="rotate(45) scale(707.107)">
<stop stop-color="#99E0C6"/>
<stop offset="0.549686" stop-color="#2D607F"/>
<stop offset="1" stop-color="#0A1727"/>
</radialGradient>
</defs>
</svg>
