<svg width="500" height="500" viewBox="0 0 500 500" fill="none" xmlns="http://www.w3.org/2000/svg">
<rect width="500" height="500" fill="url(#paint0_radial_87_26)"/>
<path d="M250.381 213.428C250.211 213.924 249.745 214.257 249.22 214.257H89.1415C88.2993 214.257 87.7073 213.428 87.9806 212.632L105.476 161.63C105.646 161.134 106.112 160.801 106.637 160.801H266.715C267.558 160.801 268.149 161.629 267.876 162.426L250.381 213.428Z" fill="white"/>
<path d="M138.771 337.419C138.603 337.918 138.135 338.255 137.608 338.255H86.7356C85.898 338.255 85.3064 337.434 85.5713 336.639L120.419 232.067C120.586 231.566 121.055 231.228 121.583 231.228H172.817C173.656 231.228 174.248 232.051 173.98 232.847L138.771 337.419Z" fill="white"/>
<path d="M281.457 337.637C281.29 338.138 280.821 338.475 280.293 338.475H229.425C228.586 338.475 227.995 337.654 228.261 336.859L286.814 161.639C286.981 161.139 287.45 160.801 287.978 160.801H338.846C339.684 160.801 340.276 161.622 340.01 162.417L281.457 337.637Z" fill="white"/>
<path d="M352.72 337.636C352.553 338.137 352.084 338.474 351.556 338.474H300.688C299.849 338.474 299.258 337.653 299.523 336.858L359.623 161.638C359.79 161.137 360.259 160.8 360.787 160.8H411.655C412.493 160.8 413.085 161.621 412.819 162.416L352.72 337.636Z" fill="white"/>
<defs>
<radialGradient id="paint0_radial_87_26" cx="0" cy="0" r="1" gradientUnits="userSpaceOnUse" gradientTransform="rotate(45) scale(707.107)">
<stop stop-color="#99E0C6"/>
<stop offset="0.549686" stop-color="#2D607F"/>
<stop offset="1" stop-color="#0A1727"/>
</radialGradient>
</defs>
</svg>
