<svg width="284" height="250" viewBox="0 0 284 250" fill="none" xmlns="http://www.w3.org/2000/svg">
<path d="M32.0172 0.653762C32.1428 0.264122 32.5054 0 32.9148 0H130.933C131.573 0 132.027 0.623416 131.831 1.23229L100.211 99.3462C100.085 99.7359 99.7225 100 99.3131 100H1.29471C0.654994 100 0.200914 99.3766 0.397142 98.7677L32.0172 0.653762Z" fill="white"/>
<path d="M32.0172 150.654C32.1428 150.264 32.5054 150 32.9148 150H130.933C131.573 150 132.027 150.623 131.831 151.232L100.211 249.346C100.085 249.736 99.7225 250 99.3131 250H1.29471C0.654994 250 0.200914 249.377 0.397142 248.768L32.0172 150.654Z" fill="white"/>
<path d="M183.412 0.636864C183.543 0.255865 183.902 0 184.304 0H282.31C282.957 0 283.412 0.637042 283.202 1.24919L232.362 149.363C232.231 149.744 231.872 150 231.47 150H133.464C132.816 150 132.362 149.363 132.572 148.751L183.412 0.636864Z" fill="white"/>
<path d="M137.347 150.041C133.64 150.041 131.797 151.912 131.182 154.207L129.949 152.974L134.286 148.17C136.851 148.794 141.055 150.041 137.347 150.041Z" fill="white"/>
<path d="M127.709 150.001C131.417 150.001 133.259 148.13 133.874 145.835L135.107 147.068L130.771 151.872C128.205 151.248 124.002 150.001 127.709 150.001Z" fill="white"/>
<rect x="133.049" y="148.215" width="1.14243" height="4.02858" transform="rotate(45 133.049 148.215)" fill="white"/>
</svg>
