<svg width="1495" height="450" viewBox="0 0 1495 450" fill="none" xmlns="http://www.w3.org/2000/svg">
<g transform="translate(0, 80)">
<path d="M31.7149 1.59166C32.0207 0.643037 32.9035 0 33.9002 0H129.076C130.633 0 131.739 1.51779 131.261 3.00017L100.513 98.4083C100.207 99.357 99.3244 100 98.3277 100H3.15213C1.59466 100 0.489151 98.4822 0.966893 96.9998L31.7149 1.59166Z" fill="white"/>
<path d="M31.7149 151.592C32.0207 150.643 32.9035 150 33.9002 150H129.076C130.633 150 131.739 151.518 131.261 153L100.513 248.408C100.207 249.357 99.3244 250 98.3277 250H3.15213C1.59466 250 0.489151 248.482 0.966893 247L31.7149 151.592Z" fill="white"/>
<path d="M183.099 1.55052C183.417 0.622931 184.29 0 185.27 0H280.415C281.991 0 283.099 1.55096 282.587 3.04131L232.675 148.449C232.357 149.377 231.484 150 230.504 150H135.358C133.783 150 132.675 148.449 133.187 146.959L183.099 1.55052Z" fill="white"/>
<path d="M137.345 150.041C133.638 150.041 131.795 151.911 131.18 154.207L129.947 152.974L134.284 148.17C136.849 148.794 141.053 150.041 137.345 150.041Z" fill="white"/>
<path d="M127.709 150.001C131.417 150.001 133.259 148.131 133.874 145.835L135.107 147.068L130.771 151.872C128.205 151.248 124.002 150.001 127.709 150.001Z" fill="white"/>
<rect x="133.049" y="148.215" width="1.14243" height="4.02858" transform="rotate(45 133.049 148.215)" fill="white"/>
<path d="M393.056 235V15.3962H488.549C535.542 15.3962 557.232 42.8091 557.232 84.6814C557.232 128.964 533.434 154.87 488.549 154.87H420.469V235H393.056ZM420.469 130.771H487.344C513.853 130.771 528.313 116.613 528.313 95.526V73.5355C528.313 52.4487 513.251 40.7004 490.658 40.7004H420.469V130.771ZM569.307 189.814C569.307 158.786 591.298 141.314 626.543 141.314H673.837V129.265C673.837 104.262 659.077 95.526 638.291 95.526C614.493 95.526 602.444 106.973 601.54 124.746H575.934C577.742 93.4173 601.841 74.7405 639.797 74.7405C695.527 74.7405 699.744 116.312 699.744 129.867V215.721H722.939V235H696.129C680.766 235 676.247 228.071 675.645 217.227L675.344 209.093H673.536C666.608 226.565 645.822 238.012 619.915 238.012C587.984 238.012 569.307 218.733 569.307 189.814ZM596.118 183.187V192.826C596.118 208.792 608.167 216.926 625.94 216.926C655.763 216.926 673.837 197.044 673.837 168.727V160.293H628.953C607.565 160.293 596.118 169.932 596.118 183.187ZM773.607 77.7529H828.131V99.4421H776.016V235H749.809V100.948C749.809 90.1037 753.122 77.7529 773.607 77.7529ZM831.139 189.814C831.139 158.786 853.129 141.314 888.374 141.314H935.669V129.265C935.669 104.262 920.908 95.526 900.123 95.526C876.325 95.526 864.275 106.973 863.371 124.746H837.766C839.573 93.4173 863.673 74.7405 901.629 74.7405C957.358 74.7405 961.575 116.312 961.575 129.867V215.721H984.771V235H957.961C942.597 235 938.079 228.071 937.476 217.227L937.175 209.093H935.368C928.439 226.565 907.654 238.012 881.747 238.012C849.816 238.012 831.139 218.733 831.139 189.814ZM857.949 183.187V192.826C857.949 208.792 869.999 216.926 887.772 216.926C917.594 216.926 935.669 197.044 935.669 168.727V160.293H890.784C869.396 160.293 857.949 169.932 857.949 183.187ZM1091.47 204.274C1121.89 204.274 1139.37 219.637 1139.37 243.736C1139.37 274.764 1109.84 289.524 1063.75 289.524C1017.06 289.524 996.277 274.462 996.277 251.869C996.277 235.301 1005.92 224.758 1020.38 220.239V218.131C1011.34 215.118 1005.01 206.382 1005.01 196.743C1005.01 184.693 1013.45 174.451 1025.8 170.836V169.028C1011.04 159.991 1002.9 144.628 1002.9 126.855C1002.9 95.526 1027.3 74.7405 1061.65 74.7405C1072.19 74.7405 1082.13 76.5479 1089.96 79.8615V74.7405C1089.96 61.4859 1097.49 55.7624 1111.65 55.7624H1137.26V77.1504H1107.43V91.0074C1116.17 99.7434 1121.89 112.697 1121.89 127.759C1121.89 158.485 1098.1 178.969 1064.36 178.969C1055.92 178.969 1048.99 178.066 1042.67 176.258C1033.63 178.066 1028.81 184.09 1028.81 190.718C1028.81 203.972 1042.37 204.274 1049.9 204.274H1091.47ZM1028.81 121.734V132.578C1028.81 149.147 1042.07 160.293 1062.55 160.293C1082.73 160.293 1096.29 149.147 1096.29 132.578V121.734C1096.29 105.166 1082.73 93.7186 1062.55 93.7186C1042.37 93.7186 1028.81 104.864 1028.81 121.734ZM1065.26 269.944C1099.9 269.944 1113.46 260.003 1113.46 244.941C1113.46 226.264 1093.58 226.264 1089.36 226.264H1046.58C1028.81 226.264 1020.68 234.398 1020.68 246.748C1020.68 263.015 1035.14 269.944 1065.26 269.944ZM1149.75 156.376C1149.75 104.864 1180.48 74.7405 1225.36 74.7405C1269.65 74.7405 1300.67 104.262 1300.67 156.376C1300.67 205.479 1273.26 238.012 1225.36 238.012C1178.07 238.012 1149.75 206.081 1149.75 156.376ZM1176.56 169.33C1176.56 200.056 1198.86 216.323 1225.36 216.323C1252.18 216.323 1274.17 199.755 1274.17 169.33V144.929C1274.17 115.709 1253.38 96.731 1225.36 96.731C1197.05 96.731 1176.56 116.01 1176.56 144.929V169.33ZM1334.37 235V77.7529H1357.26L1360.57 106.973H1362.68C1372.32 86.7901 1392.2 74.7405 1415.7 74.7405C1450.04 74.7405 1470.23 99.4421 1470.23 138.302V235H1444.02V141.013C1444.02 111.492 1430.76 97.9359 1406.97 97.9359C1379.25 97.9359 1360.57 119.926 1360.57 152.762V235H1334.37Z" fill="white"/>
</g>
</svg>
